<svg xmlns="http://www.w3.org/2000/svg" xmlns:xlink="http://www.w3.org/1999/xlink" xmlns:lucid="lucid" width="1760" height="1360"><g transform="translate(0 0)" lucid:page-tab-id="0_0"><path d="M0 0h1760v1360H0z" fill="#fff"/><path d="M928 306.75c17.67 0 32 17.9 32 40s-14.33 40-32 40h-96c-17.67 0-32-17.9-32-40s14.33-40 32-40z" stroke="#000" stroke-opacity="0" fill="#ff741d"/><use xlink:href="#a" transform="matrix(1,0,0,1,805.0000000000005,311.75000000004934) translate(56.05 38.6)"/><path d="M520 530.17c0-4.42 3.55-8.44 7.94-9l144.12-17.93c4.4-.55 7.94 2.6 7.94 7v104c0 4.43-3.58 8-8 8H528c-4.42 0-8-3.57-8-8z" stroke="#000" stroke-opacity="0" stroke-width="2" fill="#ff8839"/><use xlink:href="#b" transform="matrix(1,0,0,1,525.0000000000002,527.2500000000165) translate(17.074999999999996 48.6)"/><use xlink:href="#c" transform="matrix(1,0,0,1,525.0000000000002,527.2500000000165) translate(84.025 48.6)"/><path d="M882.98 963.83c3.88-2.1 10.16-2.1 14.04 0l95.96 52.34c3.88 2.1 3.88 5.55 0 7.66l-95.96 52.34c-3.88 2.1-10.16 2.1-14.04 0l-95.96-52.34c-3.88-2.1-3.88-5.55 0-7.66z" stroke="#fe5900" stroke-width="4" fill="#fff"/><use xlink:href="#d" transform="matrix(1,0,0,1,785,965) translate(37.05 58.6)"/><use xlink:href="#e" transform="matrix(1,0,0,1,785,965) translate(113 58.6)"/><path d="M760 1228c0-4.42 3.58-8 8-8h200c4.42 0 8 3.58 8 8v94c-36.07-17.03-58.54-17.03-72.14-17.03-21.6 0-50.33 17.03-71.93 17.03-13.4 0-36.07 0-71.93-17.03z" stroke="#fff" fill="#ff9e56"/><path d="M772 1237c0-4.42 3.58-8 8-8h200c4.42 0 8 3.58 8 8v94c-36.07-17.03-58.54-17.03-72.14-17.03-21.6 0-50.33 17.03-71.93 17.03-13.4 0-36.07 0-71.93-17.03z" stroke="#fff" fill="#ff9e56"/><path d="M784 1246c0-4.42 3.58-8 8-8h200c4.42 0 8 3.58 8 8v94c-36.07-17.03-58.54-17.03-72.14-17.03-21.6 0-50.33 17.03-71.93 17.03-13.4 0-36.07 0-71.93-17.03z" stroke="#fff" fill="#ff9e56"/><use xlink:href="#f" transform="matrix(1,0,0,1,789.0000000000005,1243) translate(47.099999999999994 41.1)"/><use xlink:href="#g" transform="matrix(1,0,0,1,789.0000000000005,1243) translate(98 41.1)"/><path d="M800 510.25c0-4.42 3.58-8 8-8h144c4.42 0 8 3.58 8 8v104c0 4.42-3.58 8-8 8H808c-4.42 0-8-3.58-8-8z" stroke="#000" stroke-opacity="0" stroke-width="2" fill="#ff8839"/><use xlink:href="#h" transform="matrix(1,0,0,1,805.0000000000005,507.2500000000165) translate(39.525 58.6)"/><path d="M880 387.25v98.62" stroke="#333" fill="none"/><path d="M880.5 387.26h-1v-.5h1" fill="#333"/><path d="M880 500.63l-4.64-14.26h9.28z" stroke="#333" fill="#333"/><path d="M680.5 562.25h103.12" stroke="#333" fill="none"/><path d="M680.5 562.75h-.5v-1h.5" fill="#333"/><path d="M798.38 562.25l-14.26 4.64v-9.3z" stroke="#333" fill="#333"/><path d="M810 788c0-4.42 3.58-8 8-8h144c4.42 0 8 3.58 8 8v104c0 4.42-3.58 8-8 8H818c-4.42 0-8-3.58-8-8z" stroke="#000" stroke-opacity="0" stroke-width="2" fill="#ff8839"/><use xlink:href="#i" transform="matrix(1,0,0,1,815,785) translate(19.549999999999997 58.6)"/><use xlink:href="#j" transform="matrix(1,0,0,1,815,785) translate(100.5 58.6)"/><path d="M1080 686.97c0-4.42 3.55-8.44 7.94-9l144.12-17.93c4.4-.55 7.94 2.6 7.94 7v104c0 4.43-3.58 8-8 8h-144c-4.42 0-8-3.57-8-8z" stroke="#000" stroke-opacity="0" stroke-width="2" fill="#ff8839"/><use xlink:href="#b" transform="matrix(1,0,0,1,1085,684.0513449219213) translate(8.074999999999989 48.6)"/><use xlink:href="#k" transform="matrix(1,0,0,1,1085,684.0513449219213) translate(75.02499999999999 48.6)"/><path d="M1160 779.55V828c0 6.63-5.37 12-12 12H986.38" stroke="#333" fill="none"/><path d="M1160.5 779.56h-1v-.5h1" fill="#333"/><path d="M971.62 840l14.26-4.64v9.28z" stroke="#333" fill="#333"/><path d="M960.5 562.25H1148c6.63 0 12 5.37 12 12v80.42" stroke="#333" fill="none"/><path d="M960.5 562.75h-.5v-1h.5" fill="#333"/><path d="M1160 669.43l-4.64-14.26h9.28z" stroke="#333" fill="#333"/><path d="M742.58 1167.97l.4 3 1.14 2.77 1.83 2.4 2.4 1.82 2.75 1.14 3.02.4h33.9l3.22.42 3 1.24 2.6 2 2 2.6 1.24 3 .42 3.2v11.66h-1v-11.6l-.4-3-1.14-2.76-1.83-2.4-2.4-1.82-2.75-1.14-3-.4h-33.93l-3.2-.42-3-1.24-2.6-2-2-2.6-1.25-3-.42-3.2v-28.28h1m39-119.26h-27.46l-3.02.4-2.76 1.14-2.4 1.83-1.82 2.4-1.14 2.75-.4 3v86.14h-1v-86.2l.42-3.2 1.25-3 2-2.6 2.6-2 3-1.24 3.2-.42h27.53" fill="#333"/><path d="M782 1019.7l.24.8h-.67v-1h.5M800 1218.38l-4.64-14.26h9.28z" fill="#333"/><path d="M800 1220l-5.32-16.38h10.64m-9.27 1l3.95 12.14 3.95-12.14" fill="#333"/><use xlink:href="#l" transform="matrix(1,0,0,1,717.1334153717478,1118.1582923141261) translate(0.004999999999999005 14.4)"/><path d="M1038.42 1167.53l-.42 3.2-1.25 3-2 2.6-2.6 2-3 1.25-3.2.42h-55.3l-3.02.4-2.75 1.14-2.4 1.83-1.83 2.4-1.14 2.75-.38 3v11.6h-1v-11.65l.42-3.2 1.24-3 2-2.6 2.6-2 3-1.25 3.2-.42h55.3l3.02-.4 2.76-1.14 2.4-1.83 1.82-2.4 1.14-2.75.4-3v-17.28h1m-9.26-130.28l3 1.24 2.6 2 2 2.6 1.24 3 .42 3.2v96.64h-1v-96.57l-.4-3-1.14-2.77-1.83-2.4-2.4-1.82-2.75-1.14-3.02-.4h-27.46v-1h27.53" fill="#333"/><path d="M998.43 1020.5h-.5l.08-.2-.24-.8h.67M958.62 1217.88l-4.64-14.26h9.27z" fill="#333"/><path d="M958.62 1219.5l-5.33-16.38h10.64m-9.27 1l3.95 12.14 3.94-12.14" fill="#333"/><g><use xlink:href="#m" transform="matrix(1,0,0,1,1019.4915846282522,1128.5997921120018) translate(0.004999999999999005 14.4)"/></g><path d="M890 900.5v43.4" stroke="#333" fill="none"/><path d="M890.5 900.5h-1v-.5h1" fill="#333"/><path d="M890 958.67l-4.64-14.27h9.28z" stroke="#333" fill="#333"/><defs><path fill="#fff" d="M62-99C39-31 123 0 170-40s38-139 58-208h34C234-144 253 4 115 4 49 4 18-43 31-112l26-136h34" id="n"/><path fill="#fff" d="M55-144c13 50 104 24 104 88C159 21 15 23 1-39l26-10c6 40 102 42 102-4-13-50-104-23-104-87 0-71 143-71 148-8l-29 4c-5-35-85-37-89 0" id="o"/><path fill="#fff" d="M111-194c62-3 86 47 72 106H45c-7 38 6 69 45 68 27-1 43-14 53-32l24 11C152-15 129 4 87 4 38 3 12-23 12-71c0-70 32-119 99-123zm44 81c14-66-71-72-95-28-4 8-8 17-11 28h106" id="p"/><path fill="#fff" d="M66-151c12-25 30-51 66-40l-6 26C45-176 58-65 38 0H6l36-190h30" id="q"/><g id="a"><use transform="matrix(0.05,0,0,0.05,0,0)" xlink:href="#n"/><use transform="matrix(0.05,0,0,0.05,12.950000000000001,0)" xlink:href="#o"/><use transform="matrix(0.05,0,0,0.05,21.950000000000003,0)" xlink:href="#p"/><use transform="matrix(0.05,0,0,0.05,31.950000000000003,0)" xlink:href="#q"/></g><path fill="#fff" d="M238-179c0 84-86 86-175 82L45 0H11l48-248c82 0 179-12 179 69zm-34 1c0-53-64-42-116-43l-19 98c63 0 135 9 135-55" id="r"/><path fill="#fff" d="M30-147c31-64 166-65 159 27C183-49 158 1 86 4 9 8 1-88 30-147zM88-20c53 0 68-48 68-100 0-31-11-51-44-50-52 1-68 46-68 97 0 32 13 53 44 53" id="s"/><path fill="#fff" d="M133-28C103 26-5 8 13-77c13-62 24-115 90-117 29-1 46 15 56 35l19-102h32L160 0h-30zM45-64c-2 27 10 43 35 43 54-1 69-50 69-103 0-29-15-46-42-46-53-1-58 58-62 106" id="t"/><path fill="#fff" d="M67 3c-93-2-31-127-26-193h32L48-50c-3 39 53 32 70 12 30-34 30-101 43-152h32L157 0h-30c1-10 6-24 4-33-14 20-29 37-64 36" id="u"/><path fill="#fff" d="M44-68c0 29 11 47 38 47 30 0 42-19 51-41l28 9C148-21 126 4 82 4 31 4 10-29 12-85c3-77 74-140 146-93 12 8 15 23 18 40l-31 5c-1-22-13-36-36-36-52 0-65 49-65 101" id="v"/><path fill="#fff" d="M51-54c-9 22 5 41 31 30L79-1C43 14 10-4 19-52l22-115H19l5-23h22l19-43h21l-9 43h35l-4 23H73" id="w"/><g id="b"><use transform="matrix(0.05,0,0,0.05,0,0)" xlink:href="#r"/><use transform="matrix(0.05,0,0,0.05,12,0)" xlink:href="#q"/><use transform="matrix(0.05,0,0,0.05,17.95,0)" xlink:href="#s"/><use transform="matrix(0.05,0,0,0.05,27.950000000000003,0)" xlink:href="#t"/><use transform="matrix(0.05,0,0,0.05,37.95,0)" xlink:href="#u"/><use transform="matrix(0.05,0,0,0.05,47.95,0)" xlink:href="#v"/><use transform="matrix(0.05,0,0,0.05,56.95,0)" xlink:href="#w"/></g><path fill="#fff" d="M222 0l43-216c-8 16-17 34-26 49L143 0h-22L81-216 41 0H11l48-248h42l38 208 116-208h45L252 0h-30" id="x"/><path fill="#fff" d="M6 0l50-261h32L37 0H6" id="y"/><g id="c"><use transform="matrix(0.05,0,0,0.05,0,0)" xlink:href="#x"/><use transform="matrix(0.05,0,0,0.05,14.950000000000001,0)" xlink:href="#s"/><use transform="matrix(0.05,0,0,0.05,24.950000000000003,0)" xlink:href="#t"/><use transform="matrix(0.05,0,0,0.05,34.95,0)" xlink:href="#p"/><use transform="matrix(0.05,0,0,0.05,44.95,0)" xlink:href="#y"/></g><path fill="#333" d="M30-248c87 1 191-15 191 75 0 78-77 80-158 76V0H30v-248zm33 125c57 0 124 11 124-50 0-59-68-47-124-48v98" id="z"/><path fill="#333" d="M141-36C126-15 110 5 73 4 37 3 15-17 15-53c-1-64 63-63 125-63 3-35-9-54-41-54-24 1-41 7-42 31l-33-3c5-37 33-52 76-52 45 0 72 20 72 64v82c-1 20 7 32 28 27v20c-31 9-61-2-59-35zM48-53c0 20 12 33 32 33 41-3 63-29 60-74-43 2-92-5-92 41" id="A"/><path fill="#333" d="M179-190L93 31C79 59 56 82 12 73V49c39 6 53-20 64-50L1-190h34L92-34l54-156h33" id="B"/><path fill="#333" d="M210-169c-67 3-38 105-44 169h-31v-121c0-29-5-50-35-48C34-165 62-65 56 0H25l-1-190h30c1 10-1 24 2 32 10-44 99-50 107 0 11-21 27-35 58-36 85-2 47 119 55 194h-31v-121c0-29-5-49-35-48" id="C"/><path fill="#333" d="M100-194c63 0 86 42 84 106H49c0 40 14 67 53 68 26 1 43-12 49-29l28 8c-11 28-37 45-77 45C44 4 14-33 15-96c1-61 26-98 85-98zm52 81c6-60-76-77-97-28-3 7-6 17-6 28h103" id="D"/><path fill="#333" d="M117-194c89-4 53 116 60 194h-32v-121c0-31-8-49-39-48C34-167 62-67 57 0H25l-1-190h30c1 10-1 24 2 32 11-22 29-35 61-36" id="E"/><path fill="#333" d="M59-47c-2 24 18 29 38 22v24C64 9 27 4 27-40v-127H5v-23h24l9-43h21v43h35v23H59v120" id="F"/><g id="d"><use transform="matrix(0.05,0,0,0.05,0,0)" xlink:href="#z"/><use transform="matrix(0.05,0,0,0.05,12,0)" xlink:href="#A"/><use transform="matrix(0.05,0,0,0.05,22,0)" xlink:href="#B"/><use transform="matrix(0.05,0,0,0.05,31,0)" xlink:href="#C"/><use transform="matrix(0.05,0,0,0.05,45.95,0)" xlink:href="#D"/><use transform="matrix(0.05,0,0,0.05,55.95,0)" xlink:href="#E"/><use transform="matrix(0.05,0,0,0.05,65.95,0)" xlink:href="#F"/></g><path fill="#333" d="M106-169C34-169 62-67 57 0H25v-261h32l-1 103c12-21 28-36 61-36 89 0 53 116 60 194h-32v-121c2-32-8-49-39-48" id="G"/><path fill="#333" d="M100-194c62-1 85 37 85 99 1 63-27 99-86 99S16-35 15-95c0-66 28-99 85-99zM99-20c44 1 53-31 53-75 0-43-8-75-51-75s-53 32-53 75 10 74 51 75" id="H"/><path fill="#333" d="M85-194c31 0 48 13 60 33l-1-100h32l1 261h-30c-2-10 0-23-3-31C134-8 116 4 85 4 32 4 16-35 15-94c0-66 23-100 70-100zm9 24c-40 0-46 34-46 75 0 40 6 74 45 74 42 0 51-32 51-76 0-42-9-74-50-73" id="I"/><g id="e"><use transform="matrix(0.05,0,0,0.05,0,0)" xlink:href="#C"/><use transform="matrix(0.05,0,0,0.05,14.950000000000001,0)" xlink:href="#D"/><use transform="matrix(0.05,0,0,0.05,24.950000000000003,0)" xlink:href="#F"/><use transform="matrix(0.05,0,0,0.05,29.950000000000003,0)" xlink:href="#G"/><use transform="matrix(0.05,0,0,0.05,39.95,0)" xlink:href="#H"/><use transform="matrix(0.05,0,0,0.05,49.95,0)" xlink:href="#I"/></g><path fill="#333" d="M140-251c81 0 123 46 123 126C263-46 219 4 140 4 59 4 17-45 17-125s42-126 123-126zm0 227c63 0 89-41 89-101s-29-99-89-99c-61 0-89 39-89 99S79-25 140-24" id="J"/><path fill="#333" d="M114-163C36-179 61-72 57 0H25l-1-190h30c1 12-1 29 2 39 6-27 23-49 58-41v29" id="K"/><g id="f"><use transform="matrix(0.05,0,0,0.05,0,0)" xlink:href="#J"/><use transform="matrix(0.05,0,0,0.05,14,0)" xlink:href="#K"/><use transform="matrix(0.05,0,0,0.05,19.95,0)" xlink:href="#I"/><use transform="matrix(0.05,0,0,0.05,29.950000000000003,0)" xlink:href="#D"/><use transform="matrix(0.05,0,0,0.05,39.95,0)" xlink:href="#K"/></g><path fill="#333" d="M233-177c-1 41-23 64-60 70L243 0h-38l-65-103H63V0H30v-248c88 3 205-21 203 71zM63-129c60-2 137 13 137-47 0-61-80-42-137-45v92" id="L"/><path fill="#333" d="M96-169c-40 0-48 33-48 73s9 75 48 75c24 0 41-14 43-38l32 2c-6 37-31 61-74 61-59 0-76-41-82-99-10-93 101-131 147-64 4 7 5 14 7 22l-32 3c-4-21-16-35-41-35" id="M"/><path fill="#333" d="M24-231v-30h32v30H24zM24 0v-190h32V0H24" id="N"/><path fill="#333" d="M115-194c55 1 70 41 70 98S169 2 115 4C84 4 66-9 55-30l1 105H24l-1-265h31l2 30c10-21 28-34 59-34zm-8 174c40 0 45-34 45-75s-6-73-45-74c-42 0-51 32-51 76 0 43 10 73 51 73" id="O"/><g id="g"><use transform="matrix(0.05,0,0,0.05,0,0)" xlink:href="#L"/><use transform="matrix(0.05,0,0,0.05,12.950000000000001,0)" xlink:href="#D"/><use transform="matrix(0.05,0,0,0.05,22.950000000000003,0)" xlink:href="#M"/><use transform="matrix(0.05,0,0,0.05,31.950000000000003,0)" xlink:href="#D"/><use transform="matrix(0.05,0,0,0.05,41.95,0)" xlink:href="#N"/><use transform="matrix(0.05,0,0,0.05,45.900000000000006,0)" xlink:href="#O"/><use transform="matrix(0.05,0,0,0.05,55.900000000000006,0)" xlink:href="#F"/></g><g id="h"><use transform="matrix(0.05,0,0,0.05,0,0)" xlink:href="#r"/><use transform="matrix(0.05,0,0,0.05,12,0)" xlink:href="#q"/><use transform="matrix(0.05,0,0,0.05,17.95,0)" xlink:href="#s"/><use transform="matrix(0.05,0,0,0.05,27.950000000000003,0)" xlink:href="#t"/><use transform="matrix(0.05,0,0,0.05,37.95,0)" xlink:href="#u"/><use transform="matrix(0.05,0,0,0.05,47.95,0)" xlink:href="#v"/><use transform="matrix(0.05,0,0,0.05,56.95,0)" xlink:href="#w"/><use transform="matrix(0.05,0,0,0.05,61.95,0)" xlink:href="#o"/></g><path fill="#fff" d="M194-120c59 52 2 134-86 124-53-6-90-18-98-63l31-7c8 30 29 43 70 43 46 0 84-17 71-62-32-43-135-20-137-98-3-89 178-90 191-16l-30 9c-8-48-127-53-127 5 0 53 81 35 115 65" id="P"/><path fill="#fff" d="M67-158c15-20 31-36 64-36 94 0 33 127 27 194h-32l25-140c3-38-53-32-70-12C52-117 51-51 37 0H6l51-261h31" id="Q"/><path fill="#fff" d="M67-162c32-53 139-36 121 50C175-51 163 2 97 4 68 4 52-11 42-31 38 6 28 39 22 75H-9l50-265h29c-1 10 0 20-3 28zm89 36c0-26-10-43-35-43-54 0-67 50-69 103-1 29 14 45 42 46 53 0 62-58 62-106" id="R"/><path fill="#fff" d="M50-231l6-30h32l-6 30H50zM6 0l37-190h31L37 0H6" id="S"/><path fill="#fff" d="M67-158c22-48 132-52 116 29L158 0h-32l25-140c3-38-53-32-70-12C52-117 51-52 38 0H6l36-190h30" id="T"/><path fill="#fff" d="M103-194c29 0 47 14 56 36 2-11 5-23 8-32h30L160-5C157 61 82 97 21 62 9 55 4 45 1 30l28-7c7 42 83 31 92-3 4-16 9-38 13-55-13 20-29 36-62 36-40 0-60-25-60-64 0-71 23-131 91-131zm4 24c-53 0-58 54-61 104-2 27 10 44 36 44 49 0 65-50 67-102 1-29-15-46-42-46" id="U"/><g id="i"><use transform="matrix(0.05,0,0,0.05,0,0)" xlink:href="#P"/><use transform="matrix(0.05,0,0,0.05,12,0)" xlink:href="#Q"/><use transform="matrix(0.05,0,0,0.05,22,0)" xlink:href="#s"/><use transform="matrix(0.05,0,0,0.05,32,0)" xlink:href="#R"/><use transform="matrix(0.05,0,0,0.05,42,0)" xlink:href="#R"/><use transform="matrix(0.05,0,0,0.05,52,0)" xlink:href="#S"/><use transform="matrix(0.05,0,0,0.05,55.95,0)" xlink:href="#T"/><use transform="matrix(0.05,0,0,0.05,65.95,0)" xlink:href="#U"/></g><path fill="#fff" d="M165-48c-4 18 1 34 23 27l-3 20c-29 8-62 0-52-35h-2C116-14 99 4 63 4 30 4 8-16 8-49c0-68 71-67 138-67 10-26 0-56-31-54-26 1-42 9-47 31l-32-5c8-67 160-71 144 15-5 28-9 54-15 81zM42-50c3 52 80 24 89-6 7-12 7-24 11-38-47 1-103-4-100 44" id="V"/><g id="j"><use transform="matrix(0.05,0,0,0.05,0,0)" xlink:href="#v"/><use transform="matrix(0.05,0,0,0.05,9,0)" xlink:href="#V"/><use transform="matrix(0.05,0,0,0.05,19,0)" xlink:href="#q"/><use transform="matrix(0.05,0,0,0.05,24.95,0)" xlink:href="#w"/></g><path fill="#fff" d="M249-183c0 48-29 72-75 77L221 0h-36l-43-103H65L45 0H11l48-248c83 2 190-17 190 65zm-34 3c0-55-74-39-127-41l-18 92c63-1 145 13 145-51" id="W"/><path fill="#fff" d="M248-111c6-24 9-61-24-58-72 9-57 108-77 169h-31l26-142c3-37-50-30-64-10C52-115 50-51 37 0H6l36-190h30c-1 10-6 24-4 32 13-43 101-52 105 5 13-22 29-41 61-41 90 0 28 129 23 194h-31" id="X"/><g id="k"><use transform="matrix(0.05,0,0,0.05,0,0)" xlink:href="#W"/><use transform="matrix(0.05,0,0,0.05,12.950000000000001,0)" xlink:href="#p"/><use transform="matrix(0.05,0,0,0.05,22.950000000000003,0)" xlink:href="#o"/><use transform="matrix(0.05,0,0,0.05,31.950000000000003,0)" xlink:href="#u"/><use transform="matrix(0.05,0,0,0.05,41.95,0)" xlink:href="#X"/><use transform="matrix(0.05,0,0,0.05,56.900000000000006,0)" xlink:href="#p"/></g><path fill="#333" d="M185-189c-5-48-123-54-124 2 14 75 158 14 163 119 3 78-121 87-175 55-17-10-28-26-33-46l33-7c5 56 141 63 141-1 0-78-155-14-162-118-5-82 145-84 179-34 5 7 8 16 11 25" id="Y"/><path fill="#333" d="M212-179c-10-28-35-45-73-45-59 0-87 40-87 99 0 60 29 101 89 101 43 0 62-24 78-52l27 14C228-24 195 4 139 4 59 4 22-46 18-125c-6-104 99-153 187-111 19 9 31 26 39 46" id="Z"/><path fill="#333" d="M205 0l-28-72H64L36 0H1l101-248h38L239 0h-34zm-38-99l-47-123c-12 45-31 82-46 123h93" id="aa"/><path fill="#333" d="M190 0L58-211 59 0H30v-248h39L202-35l-2-213h31V0h-41" id="ab"/><g id="l"><use transform="matrix(0.05,0,0,0.05,0,0)" xlink:href="#Y"/><use transform="matrix(0.05,0,0,0.05,12,0)" xlink:href="#Z"/><use transform="matrix(0.05,0,0,0.05,24.950000000000003,0)" xlink:href="#aa"/><use transform="matrix(0.05,0,0,0.05,36.95,0)" xlink:href="#ab"/></g><path fill="#333" d="M63-220v92h138v28H63V0H30v-248h175v28H63" id="ac"/><g id="m"><use transform="matrix(0.05,0,0,0.05,0,0)" xlink:href="#ab"/><use transform="matrix(0.05,0,0,0.05,12.950000000000001,0)" xlink:href="#ac"/><use transform="matrix(0.05,0,0,0.05,23.900000000000002,0)" xlink:href="#Z"/></g></defs></g></svg>