<svg xmlns="http://www.w3.org/2000/svg" xmlns:xlink="http://www.w3.org/1999/xlink" xmlns:lucid="lucid" width="2139.25" height="857.98"><g transform="translate(0 0)" lucid:page-tab-id="HWEp-vi-RSFO"><path d="M0 0h2139.25v857.98H0z" fill="#21252c"/><path d="M1219 206c0-3.3 2.7-6 6-6h288c3.3 0 6 2.7 6 6v358c0 3.3-2.7 6-6 6h-288c-3.3 0-6-2.7-6-6z" stroke="#a9a9a9" stroke-width="2" fill="#f5fbff"/><path d="M1219 237.6h300m-300 166.1h300" stroke="#a9a9a9" stroke-width="2" fill="none"/><use xlink:href="#a" transform="matrix(1,0,0,1,1227,208) translate(117.025 14.6)"/><use xlink:href="#b" transform="matrix(1,0,0,1,1231,245.6) translate(5.775 25.1)"/><use xlink:href="#c" transform="matrix(1,0,0,1,1231,245.6) translate(18 25.1)"/><use xlink:href="#d" transform="matrix(1,0,0,1,1231,245.6) translate(36.95 25.1)"/><use xlink:href="#b" transform="matrix(1,0,0,1,1231,245.6) translate(5.775 46.7)"/><use xlink:href="#e" transform="matrix(1,0,0,1,1231,245.6) translate(18 46.7)"/><use xlink:href="#f" transform="matrix(1,0,0,1,1231,245.6) translate(102.9 46.7)"/><use xlink:href="#b" transform="matrix(1,0,0,1,1231,245.6) translate(5.775 68.30000000000001)"/><use xlink:href="#g" transform="matrix(1,0,0,1,1231,245.6) translate(18 68.30000000000001)"/><use xlink:href="#f" transform="matrix(1,0,0,1,1231,245.6) translate(65.85000000000001 68.30000000000001)"/><use xlink:href="#b" transform="matrix(1,0,0,1,1231,245.6) translate(5.775 89.90000000000002)"/><use xlink:href="#h" transform="matrix(1,0,0,1,1231,245.6) translate(18 89.90000000000002)"/><use xlink:href="#f" transform="matrix(1,0,0,1,1231,245.6) translate(99.9 89.90000000000002)"/><use xlink:href="#b" transform="matrix(1,0,0,1,1231,245.6) translate(5.775 111.50000000000001)"/><use xlink:href="#i" transform="matrix(1,0,0,1,1231,245.6) translate(18 111.50000000000001)"/><use xlink:href="#f" transform="matrix(1,0,0,1,1231,245.6) translate(107.95 111.50000000000001)"/><use xlink:href="#b" transform="matrix(1,0,0,1,1231,245.6) translate(5.775 133.1)"/><use xlink:href="#j" transform="matrix(1,0,0,1,1231,245.6) translate(18 133.1)"/><use xlink:href="#k" transform="matrix(1,0,0,1,1231,245.6) translate(52.9 133.1)"/><use xlink:href="#l" transform="matrix(1,0,0,1,1231,411.7) translate(5.775 25.1)"/><use xlink:href="#m" transform="matrix(1,0,0,1,1231,411.7) translate(18 25.1)"/><use xlink:href="#l" transform="matrix(1,0,0,1,1231,411.7) translate(5.775 46.7)"/><use xlink:href="#n" transform="matrix(1,0,0,1,1231,411.7) translate(18 46.7)"/><use xlink:href="#l" transform="matrix(1,0,0,1,1231,411.7) translate(5.775 68.30000000000001)"/><use xlink:href="#o" transform="matrix(1,0,0,1,1231,411.7) translate(18 68.30000000000001)"/><use xlink:href="#l" transform="matrix(1,0,0,1,1231,411.7) translate(5.775 89.90000000000002)"/><use xlink:href="#p" transform="matrix(1,0,0,1,1231,411.7) translate(18 89.90000000000002)"/><use xlink:href="#l" transform="matrix(1,0,0,1,1231,411.7) translate(5.775 111.50000000000001)"/><use xlink:href="#q" transform="matrix(1,0,0,1,1231,411.7) translate(18 111.50000000000001)"/><use xlink:href="#r" transform="matrix(1,0,0,1,1231,411.7) translate(0 133.1)"/><path d="M1534 385h183.5" stroke="#bdf139" stroke-width="3" fill="none"/><path d="M1522.12 385l7.07-7.07 7.92 7.07-7.93 7.07z" stroke="#bdf139" stroke-width="3" fill="#fff"/><path d="M1719 386.5h-1.54v-3h1.54" fill="#bdf139"/><use xlink:href="#s" transform="matrix(1,0,0,1,1694.5,389) translate(0 14.4)"/><use xlink:href="#t" transform="matrix(1,0,0,1,1520,352.4) translate(0 14.4)"/><path d="M1720 270.5c0-3.3 2.7-6 6-6h348c3.3 0 6 2.7 6 6v229c0 3.3-2.7 6-6 6h-348c-3.3 0-6-2.7-6-6z" stroke="#a9a9a9" stroke-width="2" fill="#f5fbff"/><path d="M1720 302.1h360m-360 101.5h360" stroke="#a9a9a9" stroke-width="2" fill="none"/><g><use xlink:href="#u" transform="matrix(1,0,0,1,1728,272.5) translate(136.125 14.6)"/></g><g><use xlink:href="#l" transform="matrix(1,0,0,1,1732,310.1) translate(5.775 25.4)"/><use xlink:href="#v" transform="matrix(1,0,0,1,1732,310.1) translate(18 25.4)"/><use xlink:href="#w" transform="matrix(1,0,0,1,1732,310.1) translate(36.95 25.4)"/><use xlink:href="#x" transform="matrix(1,0,0,1,1732,310.1) translate(5.894444444444444 46.46666666666667)"/><use xlink:href="#y" transform="matrix(1,0,0,1,1732,310.1) translate(18 46.46666666666667)"/><use xlink:href="#z" transform="matrix(1,0,0,1,1732,310.1) translate(48.814814814814824 46.46666666666667)"/><use xlink:href="#l" transform="matrix(1,0,0,1,1732,310.1) translate(5.775 67.80000000000001)"/><use xlink:href="#A" transform="matrix(1,0,0,1,1732,310.1) translate(18 67.80000000000001)"/><use xlink:href="#B" transform="matrix(1,0,0,1,1732,310.1) translate(85.95 67.80000000000001)"/></g><g><use xlink:href="#b" transform="matrix(1,0,0,1,1732,411.6) translate(5.775 25.5)"/><use xlink:href="#C" transform="matrix(1,0,0,1,1732,411.6) translate(18 25.5)"/><use xlink:href="#b" transform="matrix(1,0,0,1,1732,411.6) translate(5.775 47.1)"/><use xlink:href="#D" transform="matrix(1,0,0,1,1732,411.6) translate(18 47.1)"/><use xlink:href="#b" transform="matrix(1,0,0,1,1732,411.6) translate(5.775 68.7)"/><use xlink:href="#E" transform="matrix(1,0,0,1,1732,411.6) translate(18 68.7)"/></g><path d="M680 291.5c0-3.3 2.7-6 6-6h348c3.3 0 6 2.7 6 6v187c0 3.3-2.7 6-6 6H686c-3.3 0-6-2.7-6-6z" stroke="#a9a9a9" stroke-width="2" fill="#f5fbff"/><path d="M680 323.1h360m-360 80.7h360" stroke="#a9a9a9" stroke-width="2" fill="none"/><g><use xlink:href="#F" transform="matrix(1,0,0,1,688,293.49999999999994) translate(109.17499999999998 14.6)"/></g><g><use xlink:href="#b" transform="matrix(1,0,0,1,692,331.09999999999997) translate(5.775 25.299999999999997)"/><use xlink:href="#G" transform="matrix(1,0,0,1,692,331.09999999999997) translate(18 25.299999999999997)"/><use xlink:href="#H" transform="matrix(1,0,0,1,692,331.09999999999997) translate(91.95 25.299999999999997)"/><use xlink:href="#b" transform="matrix(1,0,0,1,692,331.09999999999997) translate(5.775 46.9)"/><use xlink:href="#I" transform="matrix(1,0,0,1,692,331.09999999999997) translate(18 46.9)"/><use xlink:href="#J" transform="matrix(1,0,0,1,692,331.09999999999997) translate(56.95 46.9)"/></g><g><use xlink:href="#l" transform="matrix(1,0,0,1,692,411.79999999999995) translate(5.775 25.299999999999997)"/><use xlink:href="#K" transform="matrix(1,0,0,1,692,411.79999999999995) translate(18 25.299999999999997)"/><use xlink:href="#l" transform="matrix(1,0,0,1,692,411.79999999999995) translate(5.775 46.9)"/><use xlink:href="#L" transform="matrix(1,0,0,1,692,411.79999999999995) translate(18 46.9)"/></g><path d="M1204 385h-161.5" stroke="#bdf139" stroke-width="3" fill="none"/><path d="M1215.88 385l-7.07 7.07-7.92-7.07 7.93-7.07z" stroke="#bdf139" stroke-width="3" fill="#fff"/><path d="M1042.54 386.5H1041v-3h1.54" fill="#bdf139"/><g><use xlink:href="#s" transform="matrix(1,0,0,1,1040.5,359.4) translate(0 14.4)"/></g><g><use xlink:href="#t" transform="matrix(1,0,0,1,1196,395.99999999999994) translate(0 14.4)"/></g><path d="M160 248.5c0-3.3 2.7-6 6-6h348c3.3 0 6 2.7 6 6v273c0 3.3-2.7 6-6 6H166c-3.3 0-6-2.7-6-6z" stroke="#a9a9a9" stroke-width="2" fill="#f5fbff"/><path d="M160 280.1h360M160 468.8h360" stroke="#a9a9a9" stroke-width="2" fill="none"/><g><use xlink:href="#M" transform="matrix(1,0,0,1,168,250.49999999999994) translate(138.1 14.6)"/></g><g><use xlink:href="#b" transform="matrix(1,0,0,1,172,288.09999999999997) translate(5.775 25.300000000000004)"/><use xlink:href="#N" transform="matrix(1,0,0,1,172,288.09999999999997) translate(18 25.300000000000004)"/><use xlink:href="#f" transform="matrix(1,0,0,1,172,288.09999999999997) translate(62 25.300000000000004)"/><use xlink:href="#b" transform="matrix(1,0,0,1,172,288.09999999999997) translate(5.775 46.900000000000006)"/><use xlink:href="#O" transform="matrix(1,0,0,1,172,288.09999999999997) translate(18 46.900000000000006)"/><use xlink:href="#f" transform="matrix(1,0,0,1,172,288.09999999999997) translate(72.95 46.900000000000006)"/><use xlink:href="#b" transform="matrix(1,0,0,1,172,288.09999999999997) translate(5.775 68.50000000000001)"/><use xlink:href="#P" transform="matrix(1,0,0,1,172,288.09999999999997) translate(18 68.50000000000001)"/><use xlink:href="#f" transform="matrix(1,0,0,1,172,288.09999999999997) translate(71.9 68.50000000000001)"/><use xlink:href="#b" transform="matrix(1,0,0,1,172,288.09999999999997) translate(5.775 90.10000000000002)"/><use xlink:href="#Q" transform="matrix(1,0,0,1,172,288.09999999999997) translate(18 90.10000000000002)"/><use xlink:href="#f" transform="matrix(1,0,0,1,172,288.09999999999997) translate(110.85 90.10000000000002)"/><use xlink:href="#b" transform="matrix(1,0,0,1,172,288.09999999999997) translate(5.775 111.70000000000002)"/><use xlink:href="#R" transform="matrix(1,0,0,1,172,288.09999999999997) translate(18 111.70000000000002)"/><use xlink:href="#S" transform="matrix(1,0,0,1,172,288.09999999999997) translate(61.9 111.70000000000002)"/><use xlink:href="#b" transform="matrix(1,0,0,1,172,288.09999999999997) translate(5.775 133.3)"/><use xlink:href="#T" transform="matrix(1,0,0,1,172,288.09999999999997) translate(18 133.3)"/><use xlink:href="#f" transform="matrix(1,0,0,1,172,288.09999999999997) translate(68.95 133.3)"/><use xlink:href="#b" transform="matrix(1,0,0,1,172,288.09999999999997) translate(5.775 154.9)"/><use xlink:href="#U" transform="matrix(1,0,0,1,172,288.09999999999997) translate(18 154.9)"/><use xlink:href="#V" transform="matrix(1,0,0,1,172,288.09999999999997) translate(101.85 154.9)"/></g><path d="M659 385H541" stroke="#bdf139" stroke-width="3" fill="none"/><path d="M678.33 395l-20-10 20-10" stroke="#bdf139" stroke-width="3" fill="#fff" fill-opacity="0"/><path d="M678.33 385h-20M658.33 375v20" stroke="#bdf139" stroke-width="3" fill="#fff"/><path d="M521.67 375l20 10-20 10" stroke="#bdf139" stroke-width="3" fill="#fff" fill-opacity="0"/><path d="M521.67 385h20M541.67 395v-20" stroke="#bdf139" stroke-width="3" fill="#fff"/><g><use xlink:href="#W" transform="matrix(1,0,0,1,521,349.3999999999999) translate(0 14.4)"/></g><g><use xlink:href="#X" transform="matrix(1,0,0,1,657,399) translate(0 14.4)"/></g><defs><path fill="#5f6572" d="M238-95c0 69-44 99-111 99C63 4 22-25 22-93v-155h51v151c-1 38 19 59 55 60 90 1 49-130 58-211h52v153" id="Y"/><path fill="#5f6572" d="M137-138c1-29-70-34-71-4 15 46 118 7 119 86 1 83-164 76-172 9l43-7c4 19 20 25 44 25 33 8 57-30 24-41C81-84 22-81 20-136c-2-80 154-74 161-7" id="Z"/><path fill="#5f6572" d="M185-48c-13 30-37 53-82 52C43 2 14-33 14-96s30-98 90-98c62 0 83 45 84 108H66c0 31 8 55 39 56 18 0 30-7 34-22zm-45-69c5-46-57-63-70-21-2 6-4 13-4 21h74" id="aa"/><path fill="#5f6572" d="M135-150c-39-12-60 13-60 57V0H25l-1-190h47c2 13-1 29 3 40 6-28 27-53 61-41v41" id="ab"/><g id="a"><use transform="matrix(0.05,0,0,0.05,0,0)" xlink:href="#Y"/><use transform="matrix(0.05,0,0,0.05,12.950000000000001,0)" xlink:href="#Z"/><use transform="matrix(0.05,0,0,0.05,22.950000000000003,0)" xlink:href="#aa"/><use transform="matrix(0.05,0,0,0.05,32.95,0)" xlink:href="#ab"/><use transform="matrix(0.05,0,0,0.05,39.95,0)" xlink:href="#Z"/></g><path fill="#21252c" d="M18-113h94v29H18v-29" id="ac"/><use transform="matrix(0.05,0,0,0.05,0,0)" xlink:href="#ac" id="b"/><path fill="#21252c" d="M24-231v-30h32v30H24zM24 0v-190h32V0H24" id="ad"/><path fill="#21252c" d="M85-194c31 0 48 13 60 33l-1-100h32l1 261h-30c-2-10 0-23-3-31C134-8 116 4 85 4 32 4 16-35 15-94c0-66 23-100 70-100zm9 24c-40 0-46 34-46 75 0 40 6 74 45 74 42 0 51-32 51-76 0-42-9-74-50-73" id="ae"/><g id="c"><use transform="matrix(0.05,0,0,0.05,0,0)" xlink:href="#ad"/><use transform="matrix(0.05,0,0,0.05,3.95,0)" xlink:href="#ae"/></g><path fill="#21252c" d="M117-194c89-4 53 116 60 194h-32v-121c0-31-8-49-39-48C34-167 62-67 57 0H25l-1-190h30c1 10-1 24 2 32 11-22 29-35 61-36" id="af"/><path fill="#21252c" d="M59-47c-2 24 18 29 38 22v24C64 9 27 4 27-40v-127H5v-23h24l9-43h21v43h35v23H59v120" id="ag"/><g id="d"><use transform="matrix(0.05,0,0,0.05,0,0)" xlink:href="#ad"/><use transform="matrix(0.05,0,0,0.05,3.95,0)" xlink:href="#af"/><use transform="matrix(0.05,0,0,0.05,13.949999999999998,0)" xlink:href="#ag"/></g><path fill="#21252c" d="M84 4C-5 8 30-112 23-190h32v120c0 31 7 50 39 49 72-2 45-101 50-169h31l1 190h-30c-1-10 1-25-2-33-11 22-28 36-60 37" id="ah"/><path fill="#21252c" d="M135-143c-3-34-86-38-87 0 15 53 115 12 119 90S17 21 10-45l28-5c4 36 97 45 98 0-10-56-113-15-118-90-4-57 82-63 122-42 12 7 21 19 24 35" id="ai"/><path fill="#21252c" d="M100-194c63 0 86 42 84 106H49c0 40 14 67 53 68 26 1 43-12 49-29l28 8c-11 28-37 45-77 45C44 4 14-33 15-96c1-61 26-98 85-98zm52 81c6-60-76-77-97-28-3 7-6 17-6 28h103" id="aj"/><path fill="#21252c" d="M114-163C36-179 61-72 57 0H25l-1-190h30c1 12-1 29 2 39 6-27 23-49 58-41v29" id="ak"/><path fill="#21252c" d="M141-36C126-15 110 5 73 4 37 3 15-17 15-53c-1-64 63-63 125-63 3-35-9-54-41-54-24 1-41 7-42 31l-33-3c5-37 33-52 76-52 45 0 72 20 72 64v82c-1 20 7 32 28 27v20c-31 9-61-2-59-35zM48-53c0 20 12 33 32 33 41-3 63-29 60-74-43 2-92-5-92 41" id="al"/><path fill="#21252c" d="M210-169c-67 3-38 105-44 169h-31v-121c0-29-5-50-35-48C34-165 62-65 56 0H25l-1-190h30c1 10-1 24 2 32 10-44 99-50 107 0 11-21 27-35 58-36 85-2 47 119 55 194h-31v-121c0-29-5-49-35-48" id="am"/><g id="e"><use transform="matrix(0.05,0,0,0.05,0,0)" xlink:href="#ah"/><use transform="matrix(0.05,0,0,0.05,10,0)" xlink:href="#ai"/><use transform="matrix(0.05,0,0,0.05,19,0)" xlink:href="#aj"/><use transform="matrix(0.05,0,0,0.05,29,0)" xlink:href="#ak"/><use transform="matrix(0.05,0,0,0.05,34.95,0)" xlink:href="#af"/><use transform="matrix(0.05,0,0,0.05,44.95,0)" xlink:href="#al"/><use transform="matrix(0.05,0,0,0.05,54.95,0)" xlink:href="#am"/><use transform="matrix(0.05,0,0,0.05,69.9,0)" xlink:href="#aj"/></g><path fill="#21252c" d="M177-190C167-65 218 103 67 71c-23-6-38-20-44-43l32-5c15 47 100 32 89-28v-30C133-14 115 1 83 1 29 1 15-40 15-95c0-56 16-97 71-98 29-1 48 16 59 35 1-10 0-23 2-32h30zM94-22c36 0 50-32 50-73 0-42-14-75-50-75-39 0-46 34-46 75s6 73 46 73" id="an"/><g id="f"><use transform="matrix(0.05,0,0,0.05,0,0)" xlink:href="#ai"/><use transform="matrix(0.05,0,0,0.05,9,0)" xlink:href="#ag"/><use transform="matrix(0.05,0,0,0.05,14,0)" xlink:href="#ak"/><use transform="matrix(0.05,0,0,0.05,19.95,0)" xlink:href="#ad"/><use transform="matrix(0.05,0,0,0.05,23.9,0)" xlink:href="#af"/><use transform="matrix(0.05,0,0,0.05,33.9,0)" xlink:href="#an"/></g><path fill="#21252c" d="M24 0v-261h32V0H24" id="ao"/><g id="g"><use transform="matrix(0.05,0,0,0.05,0,0)" xlink:href="#aj"/><use transform="matrix(0.05,0,0,0.05,10,0)" xlink:href="#am"/><use transform="matrix(0.05,0,0,0.05,24.950000000000003,0)" xlink:href="#al"/><use transform="matrix(0.05,0,0,0.05,34.95,0)" xlink:href="#ad"/><use transform="matrix(0.05,0,0,0.05,38.900000000000006,0)" xlink:href="#ao"/></g><path fill="#21252c" d="M115-194c55 1 70 41 70 98S169 2 115 4C84 4 66-9 55-30l1 105H24l-1-265h31l2 30c10-21 28-34 59-34zm-8 174c40 0 45-34 45-75s-6-73-45-74c-42 0-51 32-51 76 0 43 10 73 51 73" id="ap"/><path fill="#21252c" d="M206 0h-36l-40-164L89 0H53L-1-190h32L70-26l43-164h34l41 164 42-164h31" id="aq"/><path fill="#21252c" d="M100-194c62-1 85 37 85 99 1 63-27 99-86 99S16-35 15-95c0-66 28-99 85-99zM99-20c44 1 53-31 53-75 0-43-8-75-51-75s-53 32-53 75 10 74 51 75" id="ar"/><g id="h"><use transform="matrix(0.05,0,0,0.05,0,0)" xlink:href="#ap"/><use transform="matrix(0.05,0,0,0.05,10,0)" xlink:href="#al"/><use transform="matrix(0.05,0,0,0.05,20,0)" xlink:href="#ai"/><use transform="matrix(0.05,0,0,0.05,29,0)" xlink:href="#ai"/><use transform="matrix(0.05,0,0,0.05,38,0)" xlink:href="#aq"/><use transform="matrix(0.05,0,0,0.05,50.95,0)" xlink:href="#ar"/><use transform="matrix(0.05,0,0,0.05,60.95,0)" xlink:href="#ak"/><use transform="matrix(0.05,0,0,0.05,66.9,0)" xlink:href="#ae"/></g><path fill="#21252c" d="M96-169c-40 0-48 33-48 73s9 75 48 75c24 0 41-14 43-38l32 2c-6 37-31 61-74 61-59 0-76-41-82-99-10-93 101-131 147-64 4 7 5 14 7 22l-32 3c-4-21-16-35-41-35" id="as"/><path fill="#21252c" d="M-5 72V49h209v23H-5" id="at"/><g id="i"><use transform="matrix(0.05,0,0,0.05,0,0)" xlink:href="#as"/><use transform="matrix(0.05,0,0,0.05,9,0)" xlink:href="#ak"/><use transform="matrix(0.05,0,0,0.05,14.949999999999998,0)" xlink:href="#aj"/><use transform="matrix(0.05,0,0,0.05,24.95,0)" xlink:href="#al"/><use transform="matrix(0.05,0,0,0.05,34.95,0)" xlink:href="#ag"/><use transform="matrix(0.05,0,0,0.05,39.95,0)" xlink:href="#aj"/><use transform="matrix(0.05,0,0,0.05,49.95,0)" xlink:href="#ae"/><use transform="matrix(0.05,0,0,0.05,59.95,0)" xlink:href="#at"/><use transform="matrix(0.05,0,0,0.05,69.95,0)" xlink:href="#al"/><use transform="matrix(0.05,0,0,0.05,79.95,0)" xlink:href="#ag"/></g><g id="j"><use transform="matrix(0.05,0,0,0.05,0,0)" xlink:href="#ak"/><use transform="matrix(0.05,0,0,0.05,5.95,0)" xlink:href="#ar"/><use transform="matrix(0.05,0,0,0.05,15.949999999999998,0)" xlink:href="#ao"/><use transform="matrix(0.05,0,0,0.05,19.9,0)" xlink:href="#aj"/></g><g id="k"><use transform="matrix(0.05,0,0,0.05,0,0)" xlink:href="#ai"/><use transform="matrix(0.05,0,0,0.05,9,0)" xlink:href="#ag"/><use transform="matrix(0.05,0,0,0.05,14,0)" xlink:href="#ak"/><use transform="matrix(0.05,0,0,0.05,19.95,0)" xlink:href="#ad"/><use transform="matrix(0.05,0,0,0.05,23.9,0)" xlink:href="#af"/><use transform="matrix(0.05,0,0,0.05,33.9,0)" xlink:href="#an"/></g><path d="M18-113h94v29H18v-29" id="au"/><use transform="matrix(0.05,0,0,0.05,0,0)" xlink:href="#au" id="l"/><path d="M185-189c-5-48-123-54-124 2 14 75 158 14 163 119 3 78-121 87-175 55-17-10-28-26-33-46l33-7c5 56 141 63 141-1 0-78-155-14-162-118-5-82 145-84 179-34 5 7 8 16 11 25" id="av"/><path d="M24-231v-30h32v30H24zM24 0v-190h32V0H24" id="aw"/><path d="M177-190C167-65 218 103 67 71c-23-6-38-20-44-43l32-5c15 47 100 32 89-28v-30C133-14 115 1 83 1 29 1 15-40 15-95c0-56 16-97 71-98 29-1 48 16 59 35 1-10 0-23 2-32h30zM94-22c36 0 50-32 50-73 0-42-14-75-50-75-39 0-46 34-46 75s6 73 46 73" id="ax"/><path d="M117-194c89-4 53 116 60 194h-32v-121c0-31-8-49-39-48C34-167 62-67 57 0H25l-1-190h30c1 10-1 24 2 32 11-22 29-35 61-36" id="ay"/><path d="M140-251c81 0 123 46 123 126C263-46 219 4 140 4 59 4 17-45 17-125s42-126 123-126zm0 227c63 0 89-41 89-101s-29-99-89-99c-61 0-89 39-89 99S79-25 140-24" id="az"/><path d="M84 4C-5 8 30-112 23-190h32v120c0 31 7 50 39 49 72-2 45-101 50-169h31l1 190h-30c-1-10 1-25-2-33-11 22-28 36-60 37" id="aA"/><path d="M59-47c-2 24 18 29 38 22v24C64 9 27 4 27-40v-127H5v-23h24l9-43h21v43h35v23H59v120" id="aB"/><path d="M87 75C49 33 22-17 22-94c0-76 28-126 65-167h31c-38 41-64 92-64 168S80 34 118 75H87" id="aC"/><path d="M33-261c38 41 65 92 65 168S71 34 33 75H2C39 34 66-17 66-93S39-220 2-261h31" id="aD"/><g id="m"><use transform="matrix(0.05,0,0,0.05,0,0)" xlink:href="#av"/><use transform="matrix(0.05,0,0,0.05,12,0)" xlink:href="#aw"/><use transform="matrix(0.05,0,0,0.05,15.949999999999998,0)" xlink:href="#ax"/><use transform="matrix(0.05,0,0,0.05,25.950000000000003,0)" xlink:href="#ay"/><use transform="matrix(0.05,0,0,0.05,35.95,0)" xlink:href="#az"/><use transform="matrix(0.05,0,0,0.05,49.95,0)" xlink:href="#aA"/><use transform="matrix(0.05,0,0,0.05,59.95,0)" xlink:href="#aB"/><use transform="matrix(0.05,0,0,0.05,64.95,0)" xlink:href="#aC"/><use transform="matrix(0.05,0,0,0.05,70.9,0)" xlink:href="#aD"/></g><path d="M33 0v-248h34V0H33" id="aE"/><g id="n"><use transform="matrix(0.05,0,0,0.05,0,0)" xlink:href="#av"/><use transform="matrix(0.05,0,0,0.05,12,0)" xlink:href="#aw"/><use transform="matrix(0.05,0,0,0.05,15.949999999999998,0)" xlink:href="#ax"/><use transform="matrix(0.05,0,0,0.05,25.950000000000003,0)" xlink:href="#ay"/><use transform="matrix(0.05,0,0,0.05,35.95,0)" xlink:href="#aE"/><use transform="matrix(0.05,0,0,0.05,40.95,0)" xlink:href="#ay"/><use transform="matrix(0.05,0,0,0.05,50.95,0)" xlink:href="#aC"/><use transform="matrix(0.05,0,0,0.05,56.900000000000006,0)" xlink:href="#aD"/></g><path d="M233-177c-1 41-23 64-60 70L243 0h-38l-65-103H63V0H30v-248c88 3 205-21 203 71zM63-129c60-2 137 13 137-47 0-61-80-42-137-45v92" id="aF"/><path d="M100-194c63 0 86 42 84 106H49c0 40 14 67 53 68 26 1 43-12 49-29l28 8c-11 28-37 45-77 45C44 4 14-33 15-96c1-61 26-98 85-98zm52 81c6-60-76-77-97-28-3 7-6 17-6 28h103" id="aG"/><path d="M135-143c-3-34-86-38-87 0 15 53 115 12 119 90S17 21 10-45l28-5c4 36 97 45 98 0-10-56-113-15-118-90-4-57 82-63 122-42 12 7 21 19 24 35" id="aH"/><path d="M114-163C36-179 61-72 57 0H25l-1-190h30c1 12-1 29 2 39 6-27 23-49 58-41v29" id="aI"/><g id="o"><use transform="matrix(0.05,0,0,0.05,0,0)" xlink:href="#aF"/><use transform="matrix(0.05,0,0,0.05,12.950000000000001,0)" xlink:href="#aG"/><use transform="matrix(0.05,0,0,0.05,22.950000000000003,0)" xlink:href="#ax"/><use transform="matrix(0.05,0,0,0.05,32.95,0)" xlink:href="#aw"/><use transform="matrix(0.05,0,0,0.05,36.900000000000006,0)" xlink:href="#aH"/><use transform="matrix(0.05,0,0,0.05,45.900000000000006,0)" xlink:href="#aB"/><use transform="matrix(0.05,0,0,0.05,50.900000000000006,0)" xlink:href="#aG"/><use transform="matrix(0.05,0,0,0.05,60.900000000000006,0)" xlink:href="#aI"/><use transform="matrix(0.05,0,0,0.05,66.85000000000001,0)" xlink:href="#aC"/><use transform="matrix(0.05,0,0,0.05,72.80000000000001,0)" xlink:href="#aD"/></g><path d="M30 0v-248h187v28H63v79h144v27H63v87h162V0H30" id="aJ"/><path d="M85-194c31 0 48 13 60 33l-1-100h32l1 261h-30c-2-10 0-23-3-31C134-8 116 4 85 4 32 4 16-35 15-94c0-66 23-100 70-100zm9 24c-40 0-46 34-46 75 0 40 6 74 45 74 42 0 51-32 51-76 0-42-9-74-50-73" id="aK"/><path d="M30-248c87 1 191-15 191 75 0 78-77 80-158 76V0H30v-248zm33 125c57 0 124 11 124-50 0-59-68-47-124-48v98" id="aL"/><path d="M141-36C126-15 110 5 73 4 37 3 15-17 15-53c-1-64 63-63 125-63 3-35-9-54-41-54-24 1-41 7-42 31l-33-3c5-37 33-52 76-52 45 0 72 20 72 64v82c-1 20 7 32 28 27v20c-31 9-61-2-59-35zM48-53c0 20 12 33 32 33 41-3 63-29 60-74-43 2-92-5-92 41" id="aM"/><path d="M206 0h-36l-40-164L89 0H53L-1-190h32L70-26l43-164h34l41 164 42-164h31" id="aN"/><path d="M100-194c62-1 85 37 85 99 1 63-27 99-86 99S16-35 15-95c0-66 28-99 85-99zM99-20c44 1 53-31 53-75 0-43-8-75-51-75s-53 32-53 75 10 74 51 75" id="aO"/><g id="p"><use transform="matrix(0.05,0,0,0.05,0,0)" xlink:href="#aJ"/><use transform="matrix(0.05,0,0,0.05,12,0)" xlink:href="#aK"/><use transform="matrix(0.05,0,0,0.05,22,0)" xlink:href="#aw"/><use transform="matrix(0.05,0,0,0.05,25.950000000000003,0)" xlink:href="#aB"/><use transform="matrix(0.05,0,0,0.05,30.950000000000003,0)" xlink:href="#aL"/><use transform="matrix(0.05,0,0,0.05,42.95,0)" xlink:href="#aM"/><use transform="matrix(0.05,0,0,0.05,52.95,0)" xlink:href="#aH"/><use transform="matrix(0.05,0,0,0.05,61.95,0)" xlink:href="#aH"/><use transform="matrix(0.05,0,0,0.05,70.95,0)" xlink:href="#aN"/><use transform="matrix(0.05,0,0,0.05,83.9,0)" xlink:href="#aO"/><use transform="matrix(0.05,0,0,0.05,93.9,0)" xlink:href="#aI"/><use transform="matrix(0.05,0,0,0.05,99.85000000000001,0)" xlink:href="#aK"/><use transform="matrix(0.05,0,0,0.05,109.85000000000001,0)" xlink:href="#aC"/><use transform="matrix(0.05,0,0,0.05,115.80000000000001,0)" xlink:href="#ay"/><use transform="matrix(0.05,0,0,0.05,125.80000000000001,0)" xlink:href="#aG"/><use transform="matrix(0.05,0,0,0.05,135.8,0)" xlink:href="#aN"/><use transform="matrix(0.05,0,0,0.05,148.75,0)" xlink:href="#aL"/><use transform="matrix(0.05,0,0,0.05,160.75,0)" xlink:href="#aM"/><use transform="matrix(0.05,0,0,0.05,170.75,0)" xlink:href="#aH"/><use transform="matrix(0.05,0,0,0.05,179.75,0)" xlink:href="#aH"/><use transform="matrix(0.05,0,0,0.05,188.75,0)" xlink:href="#aN"/><use transform="matrix(0.05,0,0,0.05,201.7,0)" xlink:href="#aO"/><use transform="matrix(0.05,0,0,0.05,211.69999999999996,0)" xlink:href="#aI"/><use transform="matrix(0.05,0,0,0.05,217.64999999999998,0)" xlink:href="#aK"/><use transform="matrix(0.05,0,0,0.05,227.64999999999998,0)" xlink:href="#aD"/></g><path d="M24 0v-261h32V0H24" id="aP"/><g id="q"><use transform="matrix(0.05,0,0,0.05,0,0)" xlink:href="#aJ"/><use transform="matrix(0.05,0,0,0.05,12,0)" xlink:href="#aK"/><use transform="matrix(0.05,0,0,0.05,22,0)" xlink:href="#aw"/><use transform="matrix(0.05,0,0,0.05,25.950000000000003,0)" xlink:href="#aB"/><use transform="matrix(0.05,0,0,0.05,30.950000000000003,0)" xlink:href="#aF"/><use transform="matrix(0.05,0,0,0.05,43.9,0)" xlink:href="#aO"/><use transform="matrix(0.05,0,0,0.05,53.900000000000006,0)" xlink:href="#aP"/><use transform="matrix(0.05,0,0,0.05,57.85,0)" xlink:href="#aG"/><use transform="matrix(0.05,0,0,0.05,67.85,0)" xlink:href="#aC"/><use transform="matrix(0.05,0,0,0.05,73.8,0)" xlink:href="#ay"/><use transform="matrix(0.05,0,0,0.05,83.8,0)" xlink:href="#aG"/><use transform="matrix(0.05,0,0,0.05,93.8,0)" xlink:href="#aN"/><use transform="matrix(0.05,0,0,0.05,106.75,0)" xlink:href="#aF"/><use transform="matrix(0.05,0,0,0.05,119.7,0)" xlink:href="#aO"/><use transform="matrix(0.05,0,0,0.05,129.7,0)" xlink:href="#aP"/><use transform="matrix(0.05,0,0,0.05,133.64999999999998,0)" xlink:href="#aG"/><use transform="matrix(0.05,0,0,0.05,143.64999999999998,0)" xlink:href="#aD"/></g><path fill="#fff" d="M27 0v-27h64v-190l-56 39v-29l58-41h29v221h61V0H27" id="aQ"/><path fill="#fff" d="M33 0v-38h34V0H33" id="aR"/><g id="s"><use transform="matrix(0.05,0,0,0.05,0,0)" xlink:href="#aQ"/><use transform="matrix(0.05,0,0,0.05,10,0)" xlink:href="#aR"/><use transform="matrix(0.05,0,0,0.05,15,0)" xlink:href="#aQ"/></g><path fill="#fff" d="M101-251c68 0 85 55 85 127S166 4 100 4C33 4 14-52 14-124c0-73 17-127 87-127zm-1 229c47 0 54-49 54-102s-4-102-53-102c-51 0-55 48-55 102 0 53 5 102 54 102" id="aS"/><path fill="#fff" d="M80-196l47-18 7 23-49 13 32 44-20 13-27-46-27 45-21-12 33-44-49-13 8-23 47 19-2-53h23" id="aT"/><g id="t"><use transform="matrix(0.05,0,0,0.05,0,0)" xlink:href="#aS"/><use transform="matrix(0.05,0,0,0.05,10,0)" xlink:href="#aR"/><use transform="matrix(0.05,0,0,0.05,15,0)" xlink:href="#aT"/></g><path fill="#5f6572" d="M199 0l-22-63H83L61 0H9l90-248h61L250 0h-51zm-33-102l-36-108c-10 38-24 72-36 108h72" id="aU"/><path fill="#5f6572" d="M190-63c-7 42-38 67-86 67-59 0-84-38-90-98-12-110 154-137 174-36l-49 2c-2-19-15-32-35-32-30 0-35 28-38 64-6 74 65 87 74 30" id="aV"/><path fill="#5f6572" d="M110-194c64 0 96 36 96 99 0 64-35 99-97 99-61 0-95-36-95-99 0-62 34-99 96-99zm-1 164c35 0 45-28 45-65 0-40-10-65-43-65-34 0-45 26-45 65 0 36 10 65 43 65" id="aW"/><path fill="#5f6572" d="M85 4C-2 5 27-109 22-190h50c7 57-23 150 33 157 60-5 35-97 40-157h50l1 190h-47c-2-12 1-28-3-38-12 25-28 42-61 42" id="aX"/><path fill="#5f6572" d="M135-194c87-1 58 113 63 194h-50c-7-57 23-157-34-157-59 0-34 97-39 157H25l-1-190h47c2 12-1 28 3 38 12-26 28-41 61-42" id="aY"/><path fill="#5f6572" d="M115-3C79 11 28 4 28-45v-112H4v-33h27l15-45h31v45h36v33H77v99c-1 23 16 31 38 25v30" id="aZ"/><g id="u"><use transform="matrix(0.05,0,0,0.05,0,0)" xlink:href="#aU"/><use transform="matrix(0.05,0,0,0.05,12.950000000000001,0)" xlink:href="#aV"/><use transform="matrix(0.05,0,0,0.05,22.950000000000003,0)" xlink:href="#aV"/><use transform="matrix(0.05,0,0,0.05,32.95,0)" xlink:href="#aW"/><use transform="matrix(0.05,0,0,0.05,43.900000000000006,0)" xlink:href="#aX"/><use transform="matrix(0.05,0,0,0.05,54.85,0)" xlink:href="#aY"/><use transform="matrix(0.05,0,0,0.05,65.80000000000001,0)" xlink:href="#aZ"/></g><g id="v"><use transform="matrix(0.05,0,0,0.05,0,0)" xlink:href="#aw"/><use transform="matrix(0.05,0,0,0.05,3.95,0)" xlink:href="#aK"/></g><g id="w"><use transform="matrix(0.05,0,0,0.05,0,0)" xlink:href="#aw"/><use transform="matrix(0.05,0,0,0.05,3.95,0)" xlink:href="#ay"/><use transform="matrix(0.05,0,0,0.05,13.949999999999998,0)" xlink:href="#aB"/></g><use transform="matrix(0.048148148148148155,0,0,0.048148148148148155,0,0)" xlink:href="#au" id="x"/><path d="M108 0H70L1-190h34L89-25l56-165h34" id="ba"/><path d="M96-169c-40 0-48 33-48 73s9 75 48 75c24 0 41-14 43-38l32 2c-6 37-31 61-74 61-59 0-76-41-82-99-10-93 101-131 147-64 4 7 5 14 7 22l-32 3c-4-21-16-35-41-35" id="bb"/><g id="y"><use transform="matrix(0.048148148148148155,0,0,0.048148148148148155,0,0)" xlink:href="#ba"/><use transform="matrix(0.048148148148148155,0,0,0.048148148148148155,8.666666666666668,0)" xlink:href="#bb"/><use transform="matrix(0.048148148148148155,0,0,0.048148148148148155,17.333333333333336,0)" xlink:href="#bb"/></g><g id="z"><use transform="matrix(0.048148148148148155,0,0,0.048148148148148155,0,0)" xlink:href="#aH"/><use transform="matrix(0.048148148148148155,0,0,0.048148148148148155,8.666666666666668,0)" xlink:href="#aB"/><use transform="matrix(0.048148148148148155,0,0,0.048148148148148155,13.481481481481483,0)" xlink:href="#aI"/><use transform="matrix(0.048148148148148155,0,0,0.048148148148148155,19.211111111111116,0)" xlink:href="#aw"/><use transform="matrix(0.048148148148148155,0,0,0.048148148148148155,23.01481481481482,0)" xlink:href="#ay"/><use transform="matrix(0.048148148148148155,0,0,0.048148148148148155,32.64444444444445,0)" xlink:href="#ax"/></g><path d="M115-194c53 0 69 39 70 98 0 66-23 100-70 100C84 3 66-7 56-30L54 0H23l1-261h32v101c10-23 28-34 59-34zm-8 174c40 0 45-34 45-75 0-40-5-75-45-74-42 0-51 32-51 76 0 43 10 73 51 73" id="bc"/><g id="A"><use transform="matrix(0.05,0,0,0.05,0,0)" xlink:href="#bc"/><use transform="matrix(0.05,0,0,0.05,10,0)" xlink:href="#aM"/><use transform="matrix(0.05,0,0,0.05,20,0)" xlink:href="#aP"/><use transform="matrix(0.05,0,0,0.05,23.95,0)" xlink:href="#aM"/><use transform="matrix(0.05,0,0,0.05,33.95,0)" xlink:href="#ay"/><use transform="matrix(0.05,0,0,0.05,43.95,0)" xlink:href="#bb"/><use transform="matrix(0.05,0,0,0.05,52.95,0)" xlink:href="#aG"/></g><path d="M101-234c-31-9-42 10-38 44h38v23H63V0H32v-167H5v-23h27c-7-52 17-82 69-68v24" id="bd"/><g id="B"><use transform="matrix(0.048148148148148155,0,0,0.048148148148148155,0,0)" xlink:href="#bd"/><use transform="matrix(0.048148148148148155,0,0,0.048148148148148155,4.814814814814816,0)" xlink:href="#aP"/><use transform="matrix(0.048148148148148155,0,0,0.048148148148148155,8.61851851851852,0)" xlink:href="#aO"/><use transform="matrix(0.048148148148148155,0,0,0.048148148148148155,18.248148148148154,0)" xlink:href="#aM"/><use transform="matrix(0.048148148148148155,0,0,0.048148148148148155,27.877777777777787,0)" xlink:href="#aB"/></g><path fill="#21252c" d="M212-179c-10-28-35-45-73-45-59 0-87 40-87 99 0 60 29 101 89 101 43 0 62-24 78-52l27 14C228-24 195 4 139 4 59 4 22-46 18-125c-6-104 99-153 187-111 19 9 31 26 39 46" id="be"/><path fill="#21252c" d="M106-169C34-169 62-67 57 0H25v-261h32l-1 103c12-21 28-36 61-36 89 0 53 116 60 194h-32v-121c2-32-8-49-39-48" id="bf"/><path fill="#21252c" d="M143 0L79-87 56-68V0H24v-261h32v163l83-92h37l-77 82L181 0h-38" id="bg"/><path fill="#21252c" d="M179-190L93 31C79 59 56 82 12 73V49c39 6 53-20 64-50L1-190h34L92-34l54-156h33" id="bh"/><path fill="#21252c" d="M87 75C49 33 22-17 22-94c0-76 28-126 65-167h31c-38 41-64 92-64 168S80 34 118 75H87" id="bi"/><path fill="#21252c" d="M33-261c38 41 65 92 65 168S71 34 33 75H2C39 34 66-17 66-93S39-220 2-261h31" id="bj"/><g id="C"><use transform="matrix(0.05,0,0,0.05,0,0)" xlink:href="#be"/><use transform="matrix(0.05,0,0,0.05,12.950000000000001,0)" xlink:href="#bf"/><use transform="matrix(0.05,0,0,0.05,22.950000000000003,0)" xlink:href="#aj"/><use transform="matrix(0.05,0,0,0.05,32.95,0)" xlink:href="#as"/><use transform="matrix(0.05,0,0,0.05,41.95,0)" xlink:href="#bg"/><use transform="matrix(0.05,0,0,0.05,50.95,0)" xlink:href="#ap"/><use transform="matrix(0.05,0,0,0.05,60.95,0)" xlink:href="#al"/><use transform="matrix(0.05,0,0,0.05,70.95,0)" xlink:href="#bh"/><use transform="matrix(0.05,0,0,0.05,79.95,0)" xlink:href="#aj"/><use transform="matrix(0.05,0,0,0.05,89.95,0)" xlink:href="#am"/><use transform="matrix(0.05,0,0,0.05,104.9,0)" xlink:href="#aj"/><use transform="matrix(0.05,0,0,0.05,114.9,0)" xlink:href="#af"/><use transform="matrix(0.05,0,0,0.05,124.9,0)" xlink:href="#ag"/><use transform="matrix(0.05,0,0,0.05,129.9,0)" xlink:href="#bi"/><use transform="matrix(0.05,0,0,0.05,135.85,0)" xlink:href="#al"/><use transform="matrix(0.05,0,0,0.05,145.85,0)" xlink:href="#am"/><use transform="matrix(0.05,0,0,0.05,160.79999999999998,0)" xlink:href="#ar"/><use transform="matrix(0.05,0,0,0.05,170.79999999999998,0)" xlink:href="#ah"/><use transform="matrix(0.05,0,0,0.05,180.79999999999998,0)" xlink:href="#af"/><use transform="matrix(0.05,0,0,0.05,190.79999999999998,0)" xlink:href="#ag"/><use transform="matrix(0.05,0,0,0.05,195.79999999999998,0)" xlink:href="#bj"/></g><path fill="#21252c" d="M143 4C61 4 22-44 18-125c-5-107 100-154 193-111 17 8 29 25 37 43l-32 9c-13-25-37-40-76-40-61 0-88 39-88 99 0 61 29 100 91 101 35 0 62-11 79-27v-45h-74v-28h105v86C228-13 192 4 143 4" id="bk"/><g id="D"><use transform="matrix(0.05,0,0,0.05,0,0)" xlink:href="#bk"/><use transform="matrix(0.05,0,0,0.05,14,0)" xlink:href="#aj"/><use transform="matrix(0.05,0,0,0.05,24,0)" xlink:href="#ag"/><use transform="matrix(0.05,0,0,0.05,29,0)" xlink:href="#be"/><use transform="matrix(0.05,0,0,0.05,41.95,0)" xlink:href="#al"/><use transform="matrix(0.05,0,0,0.05,51.95,0)" xlink:href="#ai"/><use transform="matrix(0.05,0,0,0.05,60.95,0)" xlink:href="#bf"/><use transform="matrix(0.05,0,0,0.05,70.95,0)" xlink:href="#bi"/><use transform="matrix(0.05,0,0,0.05,76.9,0)" xlink:href="#bj"/></g><path fill="#21252c" d="M30-248c87 1 191-15 191 75 0 78-77 80-158 76V0H30v-248zm33 125c57 0 124 11 124-50 0-59-68-47-124-48v98" id="bl"/><g id="E"><use transform="matrix(0.05,0,0,0.05,0,0)" xlink:href="#bl"/><use transform="matrix(0.05,0,0,0.05,12,0)" xlink:href="#al"/><use transform="matrix(0.05,0,0,0.05,22,0)" xlink:href="#bh"/><use transform="matrix(0.05,0,0,0.05,31,0)" xlink:href="#bi"/><use transform="matrix(0.05,0,0,0.05,36.95,0)" xlink:href="#al"/><use transform="matrix(0.05,0,0,0.05,46.95,0)" xlink:href="#am"/><use transform="matrix(0.05,0,0,0.05,61.900000000000006,0)" xlink:href="#ar"/><use transform="matrix(0.05,0,0,0.05,71.9,0)" xlink:href="#ah"/><use transform="matrix(0.05,0,0,0.05,81.9,0)" xlink:href="#af"/><use transform="matrix(0.05,0,0,0.05,91.9,0)" xlink:href="#ag"/><use transform="matrix(0.05,0,0,0.05,96.9,0)" xlink:href="#bj"/></g><path fill="#5f6572" d="M169-182c-1-43-94-46-97-3 18 66 151 10 154 114 3 95-165 93-204 36-6-8-10-19-12-30l50-8c3 46 112 56 116 5-17-69-150-10-154-114-4-87 153-88 188-35 5 8 8 18 10 28" id="bm"/><path fill="#5f6572" d="M114-157C55-157 80-60 75 0H25v-261h50l-1 109c12-26 28-41 61-42 86-1 58 113 63 194h-50c-7-57 23-157-34-157" id="bn"/><path fill="#5f6572" d="M135-194c53 0 70 44 70 98 0 56-19 98-73 100-31 1-45-17-59-34 3 33 2 69 2 105H25l-1-265h48c2 10 0 23 3 31 11-24 29-35 60-35zM114-30c33 0 39-31 40-66 0-38-9-64-40-64-56 0-55 130 0 130" id="bo"/><path fill="#5f6572" d="M25-224v-37h50v37H25zM25 0v-190h50V0H25" id="bp"/><path fill="#5f6572" d="M195-6C206 82 75 100 31 46c-4-6-6-13-8-21l49-6c3 16 16 24 34 25 40 0 42-37 40-79-11 22-30 35-61 35-53 0-70-43-70-97 0-56 18-96 73-97 30 0 46 14 59 34l2-30h47zm-90-29c32 0 41-27 41-63 0-35-9-62-40-62-32 0-39 29-40 63 0 36 9 62 39 62" id="bq"/><path fill="#5f6572" d="M-4 44V30h207v14H-4" id="br"/><path fill="#5f6572" d="M133-34C117-15 103 5 69 4 32 3 11-16 11-54c-1-60 55-63 116-61 1-26-3-47-28-47-18 1-26 9-28 27l-52-2c7-38 36-58 82-57s74 22 75 68l1 82c-1 14 12 18 25 15v27c-30 8-71 5-69-32zm-48 3c29 0 43-24 42-57-32 0-66-3-65 30 0 17 8 27 23 27" id="bs"/><g id="F"><use transform="matrix(0.05,0,0,0.05,0,0)" xlink:href="#bm"/><use transform="matrix(0.05,0,0,0.05,12,0)" xlink:href="#bn"/><use transform="matrix(0.05,0,0,0.05,22.950000000000003,0)" xlink:href="#aW"/><use transform="matrix(0.05,0,0,0.05,33.900000000000006,0)" xlink:href="#bo"/><use transform="matrix(0.05,0,0,0.05,44.85000000000001,0)" xlink:href="#bo"/><use transform="matrix(0.05,0,0,0.05,55.80000000000001,0)" xlink:href="#bp"/><use transform="matrix(0.05,0,0,0.05,60.80000000000001,0)" xlink:href="#aY"/><use transform="matrix(0.05,0,0,0.05,71.75000000000001,0)" xlink:href="#bq"/><use transform="matrix(0.05,0,0,0.05,82.70000000000002,0)" xlink:href="#br"/><use transform="matrix(0.05,0,0,0.05,92.70000000000002,0)" xlink:href="#aV"/><use transform="matrix(0.05,0,0,0.05,102.7,0)" xlink:href="#bs"/><use transform="matrix(0.05,0,0,0.05,112.7,0)" xlink:href="#ab"/><use transform="matrix(0.05,0,0,0.05,119.7,0)" xlink:href="#aZ"/></g><g id="G"><use transform="matrix(0.05,0,0,0.05,0,0)" xlink:href="#ap"/><use transform="matrix(0.05,0,0,0.05,10,0)" xlink:href="#ak"/><use transform="matrix(0.05,0,0,0.05,15.949999999999998,0)" xlink:href="#ar"/><use transform="matrix(0.05,0,0,0.05,25.950000000000003,0)" xlink:href="#ae"/><use transform="matrix(0.05,0,0,0.05,35.95,0)" xlink:href="#ah"/><use transform="matrix(0.05,0,0,0.05,45.95,0)" xlink:href="#as"/><use transform="matrix(0.05,0,0,0.05,54.95,0)" xlink:href="#ag"/><use transform="matrix(0.05,0,0,0.05,59.95,0)" xlink:href="#ai"/></g><g id="H"><use transform="matrix(0.05,0,0,0.05,0,0)" xlink:href="#al"/><use transform="matrix(0.05,0,0,0.05,10,0)" xlink:href="#ak"/><use transform="matrix(0.05,0,0,0.05,15.949999999999998,0)" xlink:href="#ak"/><use transform="matrix(0.05,0,0,0.05,21.9,0)" xlink:href="#al"/><use transform="matrix(0.05,0,0,0.05,31.899999999999995,0)" xlink:href="#bh"/><use transform="matrix(0.05,0,0,0.05,40.9,0)" xlink:href="#bi"/><use transform="matrix(0.05,0,0,0.05,46.85,0)" xlink:href="#ap"/><use transform="matrix(0.05,0,0,0.05,56.85,0)" xlink:href="#ak"/><use transform="matrix(0.05,0,0,0.05,62.800000000000004,0)" xlink:href="#ar"/><use transform="matrix(0.05,0,0,0.05,72.80000000000001,0)" xlink:href="#ae"/><use transform="matrix(0.05,0,0,0.05,82.80000000000001,0)" xlink:href="#ah"/><use transform="matrix(0.05,0,0,0.05,92.80000000000001,0)" xlink:href="#as"/><use transform="matrix(0.05,0,0,0.05,101.80000000000001,0)" xlink:href="#ag"/><use transform="matrix(0.05,0,0,0.05,106.80000000000001,0)" xlink:href="#bj"/></g><g id="I"><use transform="matrix(0.05,0,0,0.05,0,0)" xlink:href="#ag"/><use transform="matrix(0.05,0,0,0.05,5,0)" xlink:href="#ar"/><use transform="matrix(0.05,0,0,0.05,15,0)" xlink:href="#ag"/><use transform="matrix(0.05,0,0,0.05,20,0)" xlink:href="#al"/><use transform="matrix(0.05,0,0,0.05,30,0)" xlink:href="#ao"/></g><g id="J"><use transform="matrix(0.05,0,0,0.05,0,0)" xlink:href="#ap"/><use transform="matrix(0.05,0,0,0.05,10,0)" xlink:href="#ak"/><use transform="matrix(0.05,0,0,0.05,15.949999999999998,0)" xlink:href="#ad"/><use transform="matrix(0.05,0,0,0.05,19.9,0)" xlink:href="#as"/><use transform="matrix(0.05,0,0,0.05,28.899999999999995,0)" xlink:href="#aj"/></g><path d="M205 0l-28-72H64L36 0H1l101-248h38L239 0h-34zm-38-99l-47-123c-12 45-31 82-46 123h93" id="bt"/><g id="K"><use transform="matrix(0.05,0,0,0.05,0,0)" xlink:href="#bt"/><use transform="matrix(0.05,0,0,0.05,12,0)" xlink:href="#aK"/><use transform="matrix(0.05,0,0,0.05,22,0)" xlink:href="#aK"/><use transform="matrix(0.05,0,0,0.05,32,0)" xlink:href="#aL"/><use transform="matrix(0.05,0,0,0.05,44,0)" xlink:href="#aI"/><use transform="matrix(0.05,0,0,0.05,49.95,0)" xlink:href="#aO"/><use transform="matrix(0.05,0,0,0.05,59.95,0)" xlink:href="#aK"/><use transform="matrix(0.05,0,0,0.05,69.95,0)" xlink:href="#aA"/><use transform="matrix(0.05,0,0,0.05,79.95,0)" xlink:href="#bb"/><use transform="matrix(0.05,0,0,0.05,88.95,0)" xlink:href="#aB"/></g><path d="M30-248c118-7 216 8 213 122C240-48 200 0 122 0H30v-248zM63-27c89 8 146-16 146-99s-60-101-146-95v194" id="bu"/><g id="L"><use transform="matrix(0.05,0,0,0.05,0,0)" xlink:href="#bu"/><use transform="matrix(0.05,0,0,0.05,12.950000000000001,0)" xlink:href="#aG"/><use transform="matrix(0.05,0,0,0.05,22.950000000000003,0)" xlink:href="#aP"/><use transform="matrix(0.05,0,0,0.05,26.900000000000002,0)" xlink:href="#aG"/><use transform="matrix(0.05,0,0,0.05,36.900000000000006,0)" xlink:href="#aB"/><use transform="matrix(0.05,0,0,0.05,41.900000000000006,0)" xlink:href="#aG"/><use transform="matrix(0.05,0,0,0.05,51.900000000000006,0)" xlink:href="#aL"/><use transform="matrix(0.05,0,0,0.05,63.900000000000006,0)" xlink:href="#aI"/><use transform="matrix(0.05,0,0,0.05,69.85000000000001,0)" xlink:href="#aO"/><use transform="matrix(0.05,0,0,0.05,79.85000000000001,0)" xlink:href="#aK"/><use transform="matrix(0.05,0,0,0.05,89.85000000000001,0)" xlink:href="#aA"/><use transform="matrix(0.05,0,0,0.05,99.85000000000001,0)" xlink:href="#bb"/><use transform="matrix(0.05,0,0,0.05,108.85000000000001,0)" xlink:href="#aB"/></g><path fill="#5f6572" d="M24-248c93 1 206-16 204 79-1 75-69 88-152 82V0H24v-248zm52 121c47 0 100 7 100-41 0-47-54-39-100-39v80" id="bv"/><path fill="#5f6572" d="M88-194c31-1 46 15 58 34l-1-101h50l1 261h-48c-2-10 0-23-3-31C134-8 116 4 84 4 32 4 16-41 15-95c0-56 19-97 73-99zm17 164c33 0 40-30 41-66 1-37-9-64-41-64s-38 30-39 65c0 43 13 65 39 65" id="bw"/><g id="M"><use transform="matrix(0.05,0,0,0.05,0,0)" xlink:href="#bv"/><use transform="matrix(0.05,0,0,0.05,12,0)" xlink:href="#ab"/><use transform="matrix(0.05,0,0,0.05,19,0)" xlink:href="#aW"/><use transform="matrix(0.05,0,0,0.05,29.950000000000003,0)" xlink:href="#bw"/><use transform="matrix(0.05,0,0,0.05,40.900000000000006,0)" xlink:href="#aX"/><use transform="matrix(0.05,0,0,0.05,51.85,0)" xlink:href="#aV"/><use transform="matrix(0.05,0,0,0.05,61.85,0)" xlink:href="#aZ"/></g><g id="N"><use transform="matrix(0.05,0,0,0.05,0,0)" xlink:href="#as"/><use transform="matrix(0.05,0,0,0.05,9,0)" xlink:href="#ar"/><use transform="matrix(0.05,0,0,0.05,19,0)" xlink:href="#ae"/><use transform="matrix(0.05,0,0,0.05,29,0)" xlink:href="#aj"/></g><g id="O"><use transform="matrix(0.05,0,0,0.05,0,0)" xlink:href="#af"/><use transform="matrix(0.05,0,0,0.05,10,0)" xlink:href="#al"/><use transform="matrix(0.05,0,0,0.05,20,0)" xlink:href="#am"/><use transform="matrix(0.05,0,0,0.05,34.95,0)" xlink:href="#aj"/></g><g id="P"><use transform="matrix(0.05,0,0,0.05,0,0)" xlink:href="#ad"/><use transform="matrix(0.05,0,0,0.05,3.95,0)" xlink:href="#am"/><use transform="matrix(0.05,0,0,0.05,18.900000000000002,0)" xlink:href="#al"/><use transform="matrix(0.05,0,0,0.05,28.900000000000002,0)" xlink:href="#an"/><use transform="matrix(0.05,0,0,0.05,38.900000000000006,0)" xlink:href="#aj"/></g><g id="Q"><use transform="matrix(0.05,0,0,0.05,0,0)" xlink:href="#ad"/><use transform="matrix(0.05,0,0,0.05,3.95,0)" xlink:href="#af"/><use transform="matrix(0.05,0,0,0.05,13.949999999999998,0)" xlink:href="#an"/><use transform="matrix(0.05,0,0,0.05,23.95,0)" xlink:href="#ak"/><use transform="matrix(0.05,0,0,0.05,29.899999999999995,0)" xlink:href="#aj"/><use transform="matrix(0.05,0,0,0.05,39.9,0)" xlink:href="#ae"/><use transform="matrix(0.05,0,0,0.05,49.9,0)" xlink:href="#ad"/><use transform="matrix(0.05,0,0,0.05,53.85,0)" xlink:href="#aj"/><use transform="matrix(0.05,0,0,0.05,63.85,0)" xlink:href="#af"/><use transform="matrix(0.05,0,0,0.05,73.85,0)" xlink:href="#ag"/><use transform="matrix(0.05,0,0,0.05,78.85,0)" xlink:href="#ai"/></g><g id="R"><use transform="matrix(0.05,0,0,0.05,0,0)" xlink:href="#ap"/><use transform="matrix(0.05,0,0,0.05,10,0)" xlink:href="#ak"/><use transform="matrix(0.05,0,0,0.05,15.949999999999998,0)" xlink:href="#ad"/><use transform="matrix(0.05,0,0,0.05,19.9,0)" xlink:href="#as"/><use transform="matrix(0.05,0,0,0.05,28.899999999999995,0)" xlink:href="#aj"/></g><path fill="#21252c" d="M101-234c-31-9-42 10-38 44h38v23H63V0H32v-167H5v-23h27c-7-52 17-82 69-68v24" id="bx"/><g id="S"><use transform="matrix(0.05,0,0,0.05,0,0)" xlink:href="#bx"/><use transform="matrix(0.05,0,0,0.05,5,0)" xlink:href="#ao"/><use transform="matrix(0.05,0,0,0.05,8.95,0)" xlink:href="#ar"/><use transform="matrix(0.05,0,0,0.05,18.95,0)" xlink:href="#al"/><use transform="matrix(0.05,0,0,0.05,28.950000000000003,0)" xlink:href="#ag"/></g><path fill="#21252c" d="M115-194c53 0 69 39 70 98 0 66-23 100-70 100C84 3 66-7 56-30L54 0H23l1-261h32v101c10-23 28-34 59-34zm-8 174c40 0 45-34 45-75 0-40-5-75-45-74-42 0-51 32-51 76 0 43 10 73 51 73" id="by"/><g id="T"><use transform="matrix(0.05,0,0,0.05,0,0)" xlink:href="#by"/><use transform="matrix(0.05,0,0,0.05,10,0)" xlink:href="#ak"/><use transform="matrix(0.05,0,0,0.05,15.949999999999998,0)" xlink:href="#al"/><use transform="matrix(0.05,0,0,0.05,25.950000000000003,0)" xlink:href="#af"/><use transform="matrix(0.05,0,0,0.05,35.95,0)" xlink:href="#ae"/></g><g id="U"><use transform="matrix(0.05,0,0,0.05,0,0)" xlink:href="#af"/><use transform="matrix(0.05,0,0,0.05,10,0)" xlink:href="#ah"/><use transform="matrix(0.05,0,0,0.05,20,0)" xlink:href="#ag"/><use transform="matrix(0.05,0,0,0.05,25,0)" xlink:href="#ak"/><use transform="matrix(0.05,0,0,0.05,30.950000000000003,0)" xlink:href="#ad"/><use transform="matrix(0.05,0,0,0.05,34.9,0)" xlink:href="#ai"/><use transform="matrix(0.05,0,0,0.05,43.9,0)" xlink:href="#as"/><use transform="matrix(0.05,0,0,0.05,52.900000000000006,0)" xlink:href="#ar"/><use transform="matrix(0.05,0,0,0.05,62.900000000000006,0)" xlink:href="#ak"/><use transform="matrix(0.05,0,0,0.05,68.85,0)" xlink:href="#aj"/></g><g id="V"><use transform="matrix(0.05,0,0,0.05,0,0)" xlink:href="#as"/><use transform="matrix(0.05,0,0,0.05,9,0)" xlink:href="#bf"/><use transform="matrix(0.05,0,0,0.05,19,0)" xlink:href="#al"/><use transform="matrix(0.05,0,0,0.05,29,0)" xlink:href="#ak"/></g><path fill="#fff" d="M68-36c1 33-1 63-14 82H32c9-13 17-26 17-46H33v-36h35zM33-154v-36h35v36H33" id="bz"/><g id="W"><use transform="matrix(0.05,0,0,0.05,0,0)" xlink:href="#aS"/><use transform="matrix(0.05,0,0,0.05,10,0)" xlink:href="#bz"/><use transform="matrix(0.05,0,0,0.05,15,0)" xlink:href="#aT"/></g><g id="X"><use transform="matrix(0.05,0,0,0.05,0,0)" xlink:href="#aQ"/><use transform="matrix(0.05,0,0,0.05,10,0)" xlink:href="#aR"/><use transform="matrix(0.05,0,0,0.05,15,0)" xlink:href="#aT"/></g></defs></g></svg>